<?xml version="1.0" encoding="UTF-8" standalone="no"?>
<svg
   xmlns:osb="http://www.openswatchbook.org/uri/2009/osb"
   xmlns:dc="http://purl.org/dc/elements/1.1/"
   xmlns:cc="http://creativecommons.org/ns#"
   xmlns:rdf="http://www.w3.org/1999/02/22-rdf-syntax-ns#"
   xmlns:svg="http://www.w3.org/2000/svg"
   xmlns="http://www.w3.org/2000/svg"
   xmlns:sodipodi="http://sodipodi.sourceforge.net/DTD/sodipodi-0.dtd"
   xmlns:inkscape="http://www.inkscape.org/namespaces/inkscape"
   width="16"
   height="16"
   viewBox="0 0 4.2333332 4.2333333"
   version="1.1"
   id="svg8"
   inkscape:version="1.0alpha2 (5e8e0a6, 2019-09-01)"
   sodipodi:docname="open-externally-symbolic.svg">
  <defs
     id="defs2">
    <linearGradient
       osb:paint="solid"
       id="linearGradient7212">
      <stop
         style="stop-color:#000000;stop-opacity:1;"
         offset="0"
         id="stop7214" />
    </linearGradient>
    <clipPath
       id="clipPath17189-2"
       clipPathUnits="userSpaceOnUse">
      <circle
         style="display:inline;opacity:1;fill:url(#radialGradient17193);fill-opacity:1;stroke:none;stroke-width:0.04035077px;stroke-linecap:butt;stroke-linejoin:miter;stroke-miterlimit:4;stroke-dasharray:none;stroke-dashoffset:0;stroke-opacity:1;marker:none;marker-start:none;marker-mid:none;marker-end:none;paint-order:normal;enable-background:new"
         r="200"
         id="circle17191-8"
         cy="20"
         cx="280" />
    </clipPath>
  </defs>
  <sodipodi:namedview
     id="base"
     pagecolor="#ffffff"
     bordercolor="#666666"
     borderopacity="1.0"
     inkscape:pageopacity="0.0"
     inkscape:pageshadow="2"
     inkscape:zoom="22.627417"
     inkscape:cx="6.5269079"
     inkscape:cy="5.4774699"
     inkscape:document-units="px"
     inkscape:current-layer="layer1-3"
     inkscape:document-rotation="0"
     showgrid="true"
     units="px"
     inkscape:snap-nodes="true"
     inkscape:snap-bbox="true"
     inkscape:bbox-nodes="true"
     inkscape:snap-intersection-paths="false"
     inkscape:snap-smooth-nodes="true"
     inkscape:snap-midpoints="false"
     inkscape:object-paths="true"
     inkscape:snap-grids="false"
     inkscape:window-width="2560"
     inkscape:window-height="1361"
     inkscape:window-x="0"
     inkscape:window-y="0"
     inkscape:window-maximized="1">
    <inkscape:grid
       type="xygrid"
       id="grid848" />
  </sodipodi:namedview>
  <metadata
     id="metadata5">
    <rdf:RDF>
      <cc:Work
         rdf:about="">
        <dc:format>image/svg+xml</dc:format>
        <dc:type
           rdf:resource="http://purl.org/dc/dcmitype/StillImage" />
        <dc:title></dc:title>
      </cc:Work>
    </rdf:RDF>
  </metadata>
  <g
     inkscape:label="Layer 1"
     inkscape:groupmode="layer"
     id="layer1"
     transform="translate(-12.225734,-28.101678)">
    <g
       transform="matrix(0.1935617,0,0,0.1935617,-24.213518,-7.4552725)"
       id="layer1-3"
       inkscape:groupmode="layer"
       inkscape:label="Layer 1">
      <path
         style="isolation:isolate;fill:#2e3436;fill-opacity:1;stroke-width:0.280716"
         inkscape:connector-curvature="0"
         id="path11"
         d="m 201.92592,183.69828 2.73368,2.73383 -5.46772,5.46724 2.73384,2.73384 5.46756,-5.46753 2.73396,2.73384 v -8.20122 z"
         sodipodi:nodetypes="cccccccc" />
      <title
         id="title9167">Gnome Symbolic Icon Theme</title>
      <g
         transform="matrix(1.3669198,0,0,1.3669198,-519.13525,398.26144)"
         style="display:inline"
         id="layer1-36" />
      <g
         transform="matrix(1.3669198,0,0,1.3669198,-848.56321,899.92102)"
         style="display:inline"
         id="layer9" />
      <path
         transform="matrix(1.3669198,0,0,1.3669198,188.25652,183.69828)"
         d="M 8 0 C 3.5943576 0 0 3.5943576 0 8 C 0 12.405642 3.5943576 16 8 16 C 12.405642 16 16 12.405642 16 8 L 13.867188 8 C 13.867188 11.2527 11.252707 13.867188 8 13.867188 C 4.7472928 13.867188 2.1328125 11.2527 2.1328125 8 C 2.1328125 4.7472928 4.7472928 2.1328125 8 2.1328125 L 8 0 z "
         style="color:#000000;font-style:normal;font-variant:normal;font-weight:normal;font-stretch:normal;font-size:medium;line-height:normal;font-family:sans-serif;font-variant-ligatures:normal;font-variant-position:normal;font-variant-caps:normal;font-variant-numeric:normal;font-variant-alternates:normal;font-feature-settings:normal;text-indent:0;text-align:start;text-decoration:none;text-decoration-line:none;text-decoration-style:solid;text-decoration-color:#000000;letter-spacing:normal;word-spacing:normal;text-transform:none;writing-mode:lr-tb;direction:ltr;text-orientation:mixed;dominant-baseline:auto;baseline-shift:baseline;text-anchor:start;white-space:normal;shape-padding:0;clip-rule:nonzero;display:inline;overflow:visible;visibility:visible;opacity:1;isolation:auto;mix-blend-mode:normal;color-interpolation:sRGB;color-interpolation-filters:linearRGB;solid-color:#000000;solid-opacity:1;vector-effect:none;fill:#2e3436;fill-opacity:1;fill-rule:nonzero;stroke:none;stroke-width:2.13334;stroke-linecap:butt;stroke-linejoin:miter;stroke-miterlimit:4;stroke-dasharray:none;stroke-dashoffset:0;stroke-opacity:1;marker:none;paint-order:normal;color-rendering:auto;image-rendering:auto;shape-rendering:auto;text-rendering:auto;enable-background:accumulate;stop-opacity:1"
         id="path13484" />
      <path
         transform="matrix(0.04022385,0,0,0.04022385,187.94101,193.84975)"
         style="display:inline;opacity:0.5;fill:#2e3436;fill-opacity:1;stroke:none;stroke-width:0.409542px;stroke-linecap:butt;stroke-linejoin:miter;stroke-miterlimit:4;stroke-dasharray:none;stroke-dashoffset:0;stroke-opacity:1;marker:none;marker-start:none;marker-mid:none;marker-end:none;paint-order:normal;enable-background:new;stop-opacity:1"
         id="path887"
         d="m 152,-12 v -32 l 32,-32 h 32 v -32 l -32,-32 H 56 v 128 l 32,32 32,32 v 32 l 32,32 v 32 32 l 32,32 v -32 l 32,-32 V 116 L 248,84 216,52 184,20 h -32 -32 v -32 z m 128,-64 32,32 32,-32 h 32 32 l 33,48.000008 v 16 L 472,20 V -140 H 344 v 32 h -32 z m 32,32 -32,32 v 32 l 32,32 h 32 l 17,24.000008 v 32.000002 32 L 408,180 440,148 V 52 L 472,20 439.05046,21.86025 408,-12 v -7.999992 h -39 l -16,-24 z"
         clip-path="url(#clipPath17189-2)"
         inkscape:connector-curvature="0" />
      <g
         transform="matrix(1.3669198,0,0,1.3669198,-519.13525,124.87747)"
         id="layer13" />
      <g
         transform="matrix(1.3669198,0,0,1.3669198,-519.13525,398.26144)"
         style="display:inline"
         id="g6387" />
      <g
         transform="matrix(1.3669198,0,0,1.3669198,-519.13525,398.26144)"
         style="display:inline"
         id="layer10" />
      <g
         transform="matrix(1.3669198,0,0,1.3669198,-519.13525,398.26144)"
         id="layer12" />
      <g
         transform="matrix(1.3669198,0,0,1.3669198,-519.13525,398.26144)"
         style="display:inline"
         id="layer11" />
    </g>
  </g>
</svg>
