<?xml version="1.0" encoding="UTF-8" standalone="no"?>
<svg
   xmlns:osb="http://www.openswatchbook.org/uri/2009/osb"
   xmlns:dc="http://purl.org/dc/elements/1.1/"
   xmlns:cc="http://creativecommons.org/ns#"
   xmlns:rdf="http://www.w3.org/1999/02/22-rdf-syntax-ns#"
   xmlns:svg="http://www.w3.org/2000/svg"
   xmlns="http://www.w3.org/2000/svg"
   width="16"
   viewBox="0 0 16 16.004578"
   version="1.1"
   id="svg7384"
   height="16.004578">
  <metadata
     id="metadata90">
    <rdf:RDF>
      <cc:Work
         rdf:about="">
        <dc:format>image/svg+xml</dc:format>
        <dc:type
           rdf:resource="http://purl.org/dc/dcmitype/StillImage" />
        <dc:title>Gnome Symbolic Icon Theme</dc:title>
      </cc:Work>
    </rdf:RDF>
  </metadata>
  <title
     id="title9167">Gnome Symbolic Icon Theme</title>
  <defs
     id="defs7386">
    <linearGradient
       osb:paint="solid"
       id="linearGradient7212">
      <stop
         style="stop-color:#000000;stop-opacity:1;"
         offset="0"
         id="stop7214" />
    </linearGradient>
    <clipPath
       id="clipPath17189-2"
       clipPathUnits="userSpaceOnUse">
      <circle
         style="display:inline;opacity:1;fill:url(#radialGradient17193);fill-opacity:1;stroke:none;stroke-width:0.04035077px;stroke-linecap:butt;stroke-linejoin:miter;stroke-miterlimit:4;stroke-dasharray:none;stroke-dashoffset:0;stroke-opacity:1;marker:none;marker-start:none;marker-mid:none;marker-end:none;paint-order:normal;enable-background:new"
         r="200"
         id="circle17191-8"
         cy="20"
         cx="280" />
    </clipPath>
  </defs>
  <g
     transform="translate(-539.98255,160)"
     style="display:inline"
     id="layer1" />
  <g
     transform="translate(-780.98275,527)"
     style="display:inline"
     id="layer9" />
  <g
     transform="translate(-780.98275,527)"
     style="display:inline"
     id="g7628">
    <path
       id="path13484"
       d="m 788.5,-527 c -4.13029,0 -7.5,3.36971 -7.5,7.5 0,4.13029 3.36971,7.5 7.5,7.5 4.13029,0 7.5,-3.36971 7.5,-7.5 0,-4.13029 -3.36971,-7.5 -7.5,-7.5 z m 0,2 c 3.04941,0 5.5,2.45059 5.5,5.5 0,3.04941 -2.45059,5.5 -5.5,5.5 -3.04941,0 -5.5,-2.45059 -5.5,-5.5 0,-3.04941 2.45059,-5.5 5.5,-5.5 z"
       style="color:#000000;font-style:normal;font-variant:normal;font-weight:normal;font-stretch:normal;font-size:medium;line-height:normal;font-family:sans-serif;font-variant-ligatures:normal;font-variant-position:normal;font-variant-caps:normal;font-variant-numeric:normal;font-variant-alternates:normal;font-feature-settings:normal;text-indent:0;text-align:start;text-decoration:none;text-decoration-line:none;text-decoration-style:solid;text-decoration-color:#000000;letter-spacing:normal;word-spacing:normal;text-transform:none;writing-mode:lr-tb;direction:ltr;text-orientation:mixed;dominant-baseline:auto;baseline-shift:baseline;text-anchor:start;white-space:normal;shape-padding:0;clip-rule:nonzero;display:inline;overflow:visible;visibility:visible;opacity:1;isolation:auto;mix-blend-mode:normal;color-interpolation:sRGB;color-interpolation-filters:linearRGB;solid-color:#000000;solid-opacity:1;vector-effect:none;fill:#2e3436;fill-opacity:1;fill-rule:nonzero;stroke:none;stroke-width:2;stroke-linecap:butt;stroke-linejoin:miter;stroke-miterlimit:4;stroke-dasharray:none;stroke-dashoffset:0;stroke-opacity:1;marker:none;paint-order:normal;color-rendering:auto;image-rendering:auto;shape-rendering:auto;text-rendering:auto;enable-background:accumulate" />
    <path
       clip-path="url(#clipPath17189-2)"
       d="m 152,-12 v -32 l 32,-32 h 32 v -32 l -32,-32 H 56 v 128 l 32,32 32,32 v 32 l 32,32 v 32 32 l 32,32 v -32 l 32,-32 V 116 L 248,84 216,52 184,20 h -32 -32 v -32 z m 128,-64 32,32 32,-32 h 32 32 l 33,48.000008 v 16 L 472,20 V -140 H 344 v 32 h -32 z m 32,32 -32,32 v 32 l 32,32 h 32 l 17,24.000008 v 32.000002 32 L 408,180 440,148 V 52 L 472,20 439.05046,21.86025 408,-12 v -7.999992 h -39 l -16,-24 z"
       id="path17205"
       style="display:inline;opacity:0.5;fill:#2e3436;fill-opacity:1;stroke:none;stroke-width:0.40954158px;stroke-linecap:butt;stroke-linejoin:miter;stroke-miterlimit:4;stroke-dasharray:none;stroke-dashoffset:0;stroke-opacity:1;marker:none;marker-start:none;marker-mid:none;marker-end:none;paint-order:normal;enable-background:new"
       transform="matrix(0.02758747,0,0,0.02758747,780.7836,-520.03762)" />
  </g>
  <g
     transform="translate(-539.98255,-40)"
     id="layer13" />
  <g
     transform="translate(-539.98255,160)"
     style="display:inline"
     id="g6387" />
  <g
     transform="translate(-539.98255,160)"
     style="display:inline"
     id="layer10" />
  <g
     transform="translate(-539.98255,160)"
     id="layer12" />
  <g
     transform="translate(-539.98255,160)"
     style="display:inline"
     id="layer11" />
</svg>
