<svg width="128" height="128" version="1.1" viewBox="0 0 128 128" xmlns="http://www.w3.org/2000/svg"><path d="m78.222 64h-28.444v-14.222h28.444m0 42.667h-28.444v-14.222h28.444m42.667-42.667h-19.982c-3.2-5.5467-7.6089-10.311-12.942-13.938l11.591-11.591-10.027-10.027-15.431 15.431c-3.2711-0.78222-6.5422-1.2089-10.098-1.2089-3.5556 0-6.8267 0.42667-10.027 1.2089l-15.502-15.431-10.027 10.027 11.52 11.591c-5.2622 3.6267-9.6711 8.3911-12.871 13.938h-19.982v14.222h14.862c-0.35556 2.3467-0.64 4.6933-0.64 7.1111v7.1111h-14.222v14.222h14.222v7.1111c0 2.4178 0.28444 4.7644 0.64 7.1111h-14.862v14.222h19.982c7.3956 12.729 21.12 21.333 36.907 21.333 15.787 0 29.511-8.6044 36.907-21.333h19.982v-14.222h-14.862c0.35555-2.3467 0.64-4.6933 0.64-7.1111v-7.1111h14.222v-14.222h-14.222v-7.1111c0-2.4178-0.28445-4.7644-0.64-7.1111h14.862z" fill="#555" stroke-width="7.1111"/></svg>
