<svg width="128" height="128" version="1.1" viewBox="0 0 128 128" xmlns="http://www.w3.org/2000/svg"><path d="m33.371 60.952h48.762v12.19h-48.762v-12.19m12.19 48.762h-24.381v-97.524h42.667v30.476h30.476v18.895l12.19-12.19v-12.8l-36.571-36.571h-48.762a12.19 12.19 0 0 0-12.19 12.19v97.524a12.19 12.19 0 0 0 12.19 12.19h24.381v-12.19m-12.19-12.19h24.99l5.4857-5.4857v-6.7048h-30.476v12.19m74.362-30.476c0.60952 0 1.8286 0.60952 2.4381 1.219l7.9238 7.9238c1.219 1.219 1.219 3.6571 0 4.8762l-6.0952 6.0952-12.8-12.8 6.0952-6.0952c0.60952-0.60952 1.219-1.219 2.4381-1.219m0 23.771-37.181 37.181h-12.8v-12.8l37.181-37.181z" fill="#555" stroke-width="6.0952"/></svg>
